<?xml version="1.0" encoding="utf-8"?>
<!-- Generator: Adobe Illustrator 24.1.3, SVG Export Plug-In . SVG Version: 6.00 Build 0)  -->
<svg version="1.1" id="Ebene_1" xmlns="http://www.w3.org/2000/svg" xmlns:xlink="http://www.w3.org/1999/xlink" x="0px" y="0px"
	 viewBox="0 0 60 60" style="enable-background:new 0 0 60 60;" xml:space="preserve">
<style type="text/css">
	.st0{display:none;}
</style>
<path class="st0" d="M28,46.3c0,0.7-0.6,1.2-1.2,1.2h-9.2c-0.7,0-1.2-0.6-1.2-1.2V31c0-0.7,0.6-1.2,1.2-1.2s1.2,0.6,1.2,1.2v14.1
	h6.7v-9.5c0-0.7,0.6-1.2,1.2-1.2h7.7c0.7,0,1.2,0.6,1.2,1.2v9.5h6.7V31.8c0-0.7,0.6-1.2,1.2-1.2c0.7,0,1.2,0.6,1.2,1.2v14.5
	c0,0.7-0.6,1.2-1.2,1.2h-9.2c-0.7,0-1.2-0.6-1.2-1.2v-9.5H28V46.3z"/>
<path class="st0" d="M13.9,31.1c-0.5,0.5-1.3,0.5-1.7,0c-0.5-0.5-0.5-1.3,0-1.7l17.6-17.6c0.5-0.5,1.3-0.5,1.7,0l17.6,17.6
	c0.5,0.5,0.5,1.3,0,1.7c-0.5,0.5-1.3,0.5-1.7,0L30.6,14.4L13.9,31.1z"/>
<path class="st0" d="M36.8,15.4c-0.7,0-1.2-0.6-1.2-1.2c0-0.7,0.6-1.2,1.2-1.2h5.4c0.7,0,1.2,0.6,1.2,1.2v5.4c0,0.7-0.6,1.2-1.2,1.2
	c-0.7,0-1.2-0.6-1.2-1.2v-4.1H36.8z"/>
<path d="M30.6,60.2C14.3,60.2,1,47,1,30.6S14.3,1,30.6,1s29.6,13.3,29.6,29.6S47,60.2,30.6,60.2z M30.6,57.8
	c15,0,27.2-12.2,27.2-27.2S45.6,3.5,30.6,3.5S3.5,15.6,3.5,30.6S15.6,57.8,30.6,57.8z"/>
<g>
	<path d="M46.6,16.4c-0.1,4.6-1.6,8.8-4.2,12.6c-1.6,2.3-3.4,4.4-5.2,6.4c-0.7,0.8-0.9,1.5-0.8,2.6c0.4,2.1,0.7,4.2,1,6.3
		c0.1,0.4-0.1,1-0.4,1.3c-1.6,1.7-3.2,3.3-4.9,4.9c-0.3,0.3-1,0.5-1.2,0.4c-0.3-0.2-0.5-0.8-0.4-1.3c0.2-1.5,0.4-3,0.7-4.4
		c0.1-0.7,0-1.3-0.6-1.8c-0.6-0.5-1.2-1.1-1.8-1.8c-0.5-0.6-0.9-0.5-1.4-0.1c-0.9,0.6-1.9,1.2-2.8,1.8c-0.6,0.4-1.1,0.4-1.7-0.2
		c-2.1-2.2-4.3-4.3-6.4-6.4c-0.6-0.6-0.6-1.1-0.2-1.7c0.6-0.9,1.2-1.9,1.8-2.9c0.3-0.5,0.3-0.8-0.1-1.2c-0.8-0.7-1.4-1.5-2.2-2.1
		c-0.3-0.2-0.8-0.3-1.3-0.3c-1.5,0.2-2.9,0.5-4.3,0.7c-0.5,0.1-1-0.2-1.5-0.3c0.2-0.5,0.2-1.1,0.6-1.4c1.5-1.6,3.1-3.2,4.7-4.7
		c0.3-0.3,0.9-0.5,1.4-0.5c2.3,0.3,4.6,0.6,6.9,1c0.7,0.1,1.1-0.1,1.6-0.5c3.6-3.6,7.6-6.6,12.4-8.4c2.6-0.9,5.2-1.4,7.9-1.3
		c2.2,0.1,2.4,0.3,2.5,2.5C46.6,15.8,46.6,16.1,46.6,16.4z M29.8,40c0.2-0.2,0.5-0.4,0.8-0.6c1.5-1.4,3.1-2.8,4.6-4.2
		c3-2.9,5.6-6.1,7.5-9.8c0.5-0.9,0.5-1.6-0.1-2.5c-1.7-2.4-3.7-4.4-6.1-6c-0.5-0.3-1-0.4-1.6-0.1c-6.3,3-10.8,8-15.2,13.1
		C23,33.2,26.4,36.6,29.8,40z M18,35.4c2.1,2.1,4,4.1,6.1,6.2c0.9-0.6,1.8-1.2,2.6-1.7c-2.4-2.4-4.7-4.7-7-7.1
		C19.1,33.7,18.5,34.6,18,35.4z M37.9,15.5c2.1,2.1,4.1,4.1,6.1,6.1c0.7-2.2,1.1-4.5,0.8-6.9C42.3,14.5,40.1,14.8,37.9,15.5z
		 M21.6,24.8c-2.2-0.3-4.1-0.6-6.1-0.9c-0.2,0-0.5,0-0.6,0.2c-1,0.9-1.9,1.7-2.8,2.6c0.1,0.1,0.1,0.2,0.2,0.3c1-0.1,1.9-0.4,2.9-0.4
		c0.5,0,1.1,0.2,1.6,0.6c0.5,0.4,0.9,1,1.4,1.6C19.4,27.4,20.4,26.2,21.6,24.8z M30.8,41.5c0.5,0.4,0.9,0.7,1.4,1
		c1,0.6,1,1.5,0.8,2.6c-0.2,0.7-0.2,1.5-0.4,2.3c0.1,0,0.2,0.1,0.3,0.1c0.9-0.9,1.7-1.8,2.6-2.7c0.1-0.1,0.2-0.4,0.2-0.5
		c-0.3-2-0.6-4-0.9-6.2C33.4,39.2,32.2,40.2,30.8,41.5z"/>
	<path d="M12.7,47.9c-0.8,0.1-1.3-0.3-1.3-1.1c0.2-2.9,1.2-5.5,3.8-7.1c2.1-1.3,4.7-0.3,5,2c0.1,0.8-0.2,1.7-0.6,2.4
		C18.1,46.7,15.6,47.7,12.7,47.9z M13.4,46c2,0,4.2-1.3,5-3.1c0.3-0.7,0.3-1.2-0.3-1.7c-0.5-0.5-1-0.5-1.6-0.3
		C14.8,41.7,13.3,44,13.4,46z"/>
	<path d="M39.4,23.7c0,1.9-1.6,3.4-3.4,3.5c-1.9,0-3.4-1.5-3.5-3.4c0-1.8,1.5-3.5,3.4-3.5C37.8,20.2,39.4,21.7,39.4,23.7z
		 M35.9,21.9c-1,0-1.8,0.8-1.8,1.8c0,0.9,0.8,1.7,1.7,1.7c1,0,1.8-0.8,1.7-1.8C37.6,22.7,36.9,21.9,35.9,21.9z"/>
</g>
</svg>
